<?xml version="1.0" encoding="utf-8"?>
<!-- Generator: Adobe Illustrator 26.3.1, SVG Export Plug-In . SVG Version: 6.00 Build 0)  -->
<svg version="1.1" id="Layer_1" xmlns="http://www.w3.org/2000/svg" xmlns:xlink="http://www.w3.org/1999/xlink" x="0px" y="0px"
	 viewBox="0 0 2500 2500" style="enable-background:new 0 0 2500 2500;" xml:space="preserve">
<style type="text/css">
	.st0{fill-rule:evenodd;clip-rule:evenodd;fill:#FFFFFF;}
	.st1{fill-rule:evenodd;clip-rule:evenodd;fill:#095797;}
</style>
<g>
	<path class="st0" d="M1851.1,983.2c-105.9,0-220,62.2-305.3,166.4c-77,94-168.3,269.7-171,574.4h-11.1
		c2.2-376.2,93.9-518.2,175-643.6c60.9-94.2,113.6-175.6,113.6-334.1c0-192.3-107.2-373.2-197.2-491
		c-97-127.1-195.4-210.4-196.4-211.2l-8.8-7.4l-8.8,7.4c-1,0.8-99.4,84.1-196.4,211.2c-89.9,117.8-197.1,298.7-197.1,491
		c0,158.5,52.6,239.9,113.6,334.1c81.1,125.4,172.8,267.4,175,643.6h-11c-2.7-304.7-94-480.5-171-574.4
		c-85.3-104.2-199.5-166.4-305.3-166.4c-166.7,0-302.3,135.6-302.3,302.3c0,148.6,113.1,302.3,302.3,302.3
		c173.9,0,238.8-114.1,238.8-186.1v-27.4l-21.9,16.6c-0.3,0.2-30.3,22.6-69.8,22.6s-68.1-28.6-68.1-68.1s28.6-68.1,68.1-68.1
		c10.1,0,63.2,3.4,112.1,70c56.1,76.4,85.1,203.1,86.6,376.6H815v190.6h301.1c-6.1,46.5-43.4,198.3-270.8,289.7l-17.4,7l12,14.4
		c64.8,77.5,194.8,70.8,246.4,52.4c22.1,88.5,71.3,145.6,158.3,182.9l5.4,2.3l5.4-2.3c87-37.2,136.2-94.3,158.2-182.9
		c51.6,18.4,181.6,25.1,246.4-52.4l12-14.4l-17.4-7c-227.4-91.4-264.7-243.1-270.8-289.7H1685V1724h-179.6
		c1.5-173.5,30.5-300.2,86.6-376.6c48.9-66.7,102-70,112.1-70c39.5,0,68.1,28.6,68.1,68.1c0,39.4-28.6,68.1-68.1,68.1
		s-69.5-22.4-69.8-22.6l-21.8-16.5v27.4c0,71.9,64.8,186.1,238.7,186.1c189.2,0,302.3-153.7,302.3-302.3
		C2153.4,1118.8,2017.8,983.2,1851.1,983.2L1851.1,983.2z"/>
	<path class="st1" d="M1851.1,996.9c-168.8,0-463,183.4-463,740.8H1350c0-677.2,288.7-626.4,288.7-991.3S1250,54.7,1250,54.7
		S861.3,381.4,861.3,746.3s288.7,314.1,288.7,991.3h-38.1c0-557.4-294.1-740.8-463-740.8s-288.7,138.9-288.7,288.7
		s114.4,288.7,288.7,288.7S874,1458,874,1401.7c0,0-33.1,25.4-78.1,25.4s-81.7-33.4-81.7-81.7c0-48.4,36.8-81.7,81.7-81.7
		s212.4,43.6,212.4,473.9H828.6V1901h302.3c0,0-2.7,204.2-280.5,315.9c70.6,84.4,223.3,59.9,245.1,41.7
		c19.1,94.4,65.4,151.6,154.5,189.7c89.1-38.1,135.4-95.3,154.5-189.7c21.8,18.2,174.5,42.7,245.1-41.7
		c-277.8-111.7-280.5-315.9-280.5-315.9h302.3v-163.4h-179.7c0-430.3,167.5-473.9,212.4-473.9s81.7,33.4,81.7,81.7
		c0,48.3-36.8,81.7-81.7,81.7s-78.1-25.4-78.1-25.4c0,56.3,50.8,172.5,225.1,172.5s288.7-138.9,288.7-288.7S2020,996.9,1851.1,996.9
		z"/>
</g>
</svg>
